<?xml version="1.0" standalone="no"?>
<!DOCTYPE svg PUBLIC "-//W3C//DTD SVG 20010904//EN"
 "http://www.w3.org/TR/2001/REC-SVG-20010904/DTD/svg10.dtd">
<svg version="1.0" xmlns="http://www.w3.org/2000/svg"
 width="186.000000pt" height="186.000000pt" viewBox="0 0 186.000000 186.000000"
 preserveAspectRatio="xMidYMid meet">
<metadata>
Created by potrace 1.14, written by Peter Selinger 2001-2017
</metadata>
<g transform="translate(0.000000,186.000000) scale(0.100000,-0.100000)"
fill="#000000" stroke="none">
<path d="M1346 1419 c-88 -25 -143 -149 -102 -227 62 -118 221 -131 290 -24
44 67 37 152 -16 209 -39 42 -112 60 -172 42z"/>
<path d="M783 1350 c-63 -29 -96 -82 -94 -154 2 -128 147 -205 254 -135 49 33
70 67 75 124 6 72 -15 112 -84 161 -32 22 -107 24 -151 4z"/>
<path d="M247 1306 c-69 -25 -107 -80 -107 -156 0 -142 176 -218 279 -119 54
51 68 127 38 192 -20 41 -43 62 -90 82 -44 18 -70 18 -120 1z"/>
<path d="M1303 974 c-55 -20 -127 -85 -162 -145 l-27 -48 -44 45 c-148 151
-377 129 -496 -46 l-39 -57 -39 39 c-66 66 -137 96 -250 105 l-69 5 8 -93 c4
-52 8 -106 8 -121 1 -24 5 -28 29 -29 15 -1 33 -3 38 -4 6 -1 14 -3 20 -4 19
-2 82 -65 100 -100 19 -39 44 -122 54 -181 l6 -35 120 0 c74 0 120 4 121 10
12 150 67 316 117 356 34 26 56 24 95 -11 52 -45 90 -141 132 -335 4 -19 12
-20 125 -20 l120 -1 1 41 c2 156 46 332 96 387 26 29 77 23 107 -13 43 -51 60
-128 60 -274 1 -72 4 -132 8 -135 6 -5 182 -5 226 -1 18 1 15 224 -5 328 -28
151 -108 274 -211 325 -60 29 -186 35 -249 12z"/>
</g>
</svg>
